# xmcd
#
# Track frame offsets:
# 150
# 35815
# 59212
# 82336
# 94273
# 119177
# 145870
# 177363
# 201088
# 221023
#
# Disc length: 3196 seconds
#
# Revision: 1
# Processed by: cddbd v1.5.2PL0 Copyright (c) Steve Scherf et al.
# Submitted via: CedeCatalogueitor 2.6.0.6 http://personales.ya.com/cdcatalogueitor
#
DISCID=a90c7a0a
DTITLE=Mulato Astatke - Mulatu Steps Ahead
DYEAR=1900
DGENRE=
TTITLE0=Radcliffe
TTITLE1=Green Afric
TTITLE2=The Way To Nice
TTITLE3=Assosa
TTITLE4=I Faram Gami I Faram
TTITLE5=Mulatu's Mood
TTITLE6=Ethio Blues
TTITLE7=Boogaloo
TTITLE8=Motherland
TTITLE9=Derashe
EXTD=
EXTT0=
EXTT1=
EXTT2=
EXTT3=
EXTT4=
EXTT5=
EXTT6=
EXTT7=
EXTT8=
EXTT9=
PLAYORDER=
